<?xml version="1.0" encoding="UTF-8" standalone="no"?>
<svg
   xmlns:dc="http://purl.org/dc/elements/1.1/"
   xmlns:cc="http://creativecommons.org/ns#"
   xmlns:rdf="http://www.w3.org/1999/02/22-rdf-syntax-ns#"
   xmlns:svg="http://www.w3.org/2000/svg"
   xmlns="http://www.w3.org/2000/svg"
   xml:space="preserve"
   style="enable-background:new 0 0 283.5 283.5;"
   viewBox="0 0 283.5 283.5"
   y="0px"
   x="0px"
   id="Layer_1"
   version="1.1"><metadata
   id="metadata21"><rdf:RDF><cc:Work
       rdf:about=""><dc:format>image/svg+xml</dc:format><dc:type
         rdf:resource="http://purl.org/dc/dcmitype/StillImage" /></cc:Work></rdf:RDF></metadata><defs
   id="defs19" />
<style
   id="style2"
   type="text/css">
	.st0{fill:none;}
	.st1{font-family:'Baskerville-Bold';}
	.st2{font-size:12px;}
	.st3{letter-spacing:1;}
</style>
<path
   id="path4"
   d="M103.6,64.9c5.2,0,9.9,0.6,14.1,1.9c4.2,1.3,7.8,3.1,10.7,5.6c2.9,2.4,5.2,5.4,6.8,9c1.6,3.5,2.4,7.6,2.4,12.2  c0,2.9-0.5,5.7-1.5,8.4c-1,2.7-2.4,5.2-4.2,7.5c-1.8,2.3-3.8,4.2-6.2,5.9c-2.4,1.7-4.9,2.9-7.6,3.7c2.7,0.5,5.4,1.5,8.3,2.9  c2.8,1.4,5.4,3.3,7.8,5.8c2.3,2.4,4.3,5.4,5.8,8.8c1.5,3.5,2.3,7.5,2.3,12.1c0,3.9-0.8,7.7-2.3,11.3c-1.5,3.7-3.8,6.9-6.9,9.8  c-3,2.8-6.8,5.1-11.3,6.8c-4.5,1.7-9.6,2.5-15.5,2.5H70.6l0.1-114.1H103.6z M88.8,79.6l-0.1,33.8h9.6c3.2,0,6.2-0.3,8.9-1  c2.7-0.7,4.9-1.7,6.8-3.2c1.9-1.4,3.3-3.2,4.3-5.4c1-2.2,1.5-4.7,1.5-7.7c0-2.8-0.4-5.3-1.1-7.4c-0.7-2.1-2-3.8-3.8-5.2  c-1.8-1.4-4.1-2.4-7-3.1c-2.9-0.7-6.5-1-10.8-1H88.8z M88.7,128.2v36.1h13.9c3.6,0,6.7-0.5,9.4-1.5c2.7-1,4.9-2.4,6.6-4  c1.7-1.7,3-3.5,3.9-5.6c0.8-2.1,1.2-4.2,1.2-6.3c0-2.5-0.4-4.9-1.2-7.2c-0.8-2.3-2.1-4.3-3.9-5.9c-1.8-1.7-4-3-6.8-4  c-2.7-1-6.1-1.5-9.9-1.5H88.7z" />
<path
   id="path6"
   d="M142,23.5C77.2,23.5,24.5,76.2,24.5,141S77.2,258.5,142,258.5c64.8,0,117.5-52.7,117.5-117.5S206.8,23.5,142,23.5z   M212.3,114.4c-1.9-4.4-4.8-8.1-8.7-11.2c-3.9-3.1-8.9-5.5-14.9-7.1c-6-1.6-13.1-2.5-21.4-2.5h-9.7v16.7h6.2  c5.7,0,10.4,0.4,14.1,1.1c3.7,0.8,6.7,2,8.9,3.6c2.2,1.6,3.7,3.7,4.6,6.2c0.9,2.5,1.3,5.6,1.3,9.2c0,3.6-0.6,6.8-1.9,9.6  c-1.3,2.8-3.2,5.2-5.7,7.2c-2.5,2-5.5,3.5-9.1,4.5c-3.6,1-7.6,1.6-12.1,1.6c-1.8,0-3.6,0-5.4-0.1c-0.3,0-0.6,0-0.9-0.1v16.6  c0.6,0.1,1.3,0.1,1.8,0.1c1.8,0,3.3,0.1,4.7,0.1l23.8,36.3h38.1c-19.5,25.1-50,41.2-84.1,41.2c-58.7,0-106.5-47.8-106.5-106.5  c0-23.9,7.9-45.9,21.2-63.7h14V65h-3.1C86.7,46.1,113,34.5,142,34.5c58.7,0,106.5,47.8,106.5,106.5c0,19.2-5.1,37.3-14.1,52.9h-30.8  l-18.7-26.1c6-1.8,10.9-4.1,14.8-6.9c3.9-2.9,7-6,9.3-9.5c2.3-3.5,3.9-7.1,4.8-10.9c0.9-3.8,1.4-7.5,1.4-11.2  C215.2,123.8,214.2,118.8,212.3,114.4z" />
<rect
   id="rect8"
   height="13.1"
   width="70.7"
   class="st0"
   y="182.9"
   x="70" />
<text
   id="text10"
   class="st1 st2 st3"
   transform="matrix(1 0 0 1 70.0103 191.0059)">BRONTE</text>

<rect
   id="rect12"
   height="13.1"
   width="80.2"
   class="st0"
   y="196.1"
   x="98.4" />
<text
   id="text14"
   class="st1 st2 st3"
   transform="matrix(1 0 0 1 98.3633 204.1367)">ROSEBERY</text>

</svg>